<?xml version="1.0" encoding="UTF-8" standalone="no"?>
<!-- Created with Inkscape (http://www.inkscape.org/) -->

<svg
   xmlns:dc="http://purl.org/dc/elements/1.1/"
   xmlns:cc="http://creativecommons.org/ns#"
   xmlns:rdf="http://www.w3.org/1999/02/22-rdf-syntax-ns#"
   xmlns:svg="http://www.w3.org/2000/svg"
   xmlns="http://www.w3.org/2000/svg"
   xmlns:sodipodi="http://sodipodi.sourceforge.net/DTD/sodipodi-0.dtd"
   xmlns:inkscape="http://www.inkscape.org/namespaces/inkscape"
   width="150mm"
   height="50mm"
   viewBox="0 0 150 50"
   version="1.1"
   id="svg8"
   inkscape:version="0.92.0 r15299"
   sodipodi:docname="Logo08.7.svg">
  <defs
     id="defs2" />
  <sodipodi:namedview
     id="base"
     pagecolor="#ffffff"
     bordercolor="#666666"
     borderopacity="1.0"
     inkscape:pageopacity="0.0"
     inkscape:pageshadow="2"
     inkscape:zoom="0.47080606"
     inkscape:cx="295.07685"
     inkscape:cy="-92.805524"
     inkscape:document-units="mm"
     inkscape:current-layer="layer1"
     showgrid="false"
     inkscape:window-width="1366"
     inkscape:window-height="705"
     inkscape:window-x="-8"
     inkscape:window-y="-8"
     inkscape:window-maximized="1" />
  <metadata
     id="metadata5">
    <rdf:RDF>
      <cc:Work
         rdf:about="">
        <dc:format>image/svg+xml</dc:format>
        <dc:type
           rdf:resource="http://purl.org/dc/dcmitype/StillImage" />
        <dc:title></dc:title>
      </cc:Work>
    </rdf:RDF>
  </metadata>
  <g
     inkscape:label="Layer 1"
     inkscape:groupmode="layer"
     id="layer1"
     transform="translate(0,-247)">
    <g
       id="g6118">
      <g
         id="g6102">
        <g
           aria-label="PM"
           transform="matrix(0.92750351,0,0,1.3362602,-36.275712,176.30755)"
           style="font-style:normal;font-variant:normal;font-weight:bold;font-stretch:normal;font-size:39.99992752px;line-height:25px;font-family:'Berlin Sans FB Demi';-inkscape-font-specification:'Berlin Sans FB Demi, Bold';font-variant-ligatures:normal;font-variant-caps:normal;font-variant-numeric:normal;font-feature-settings:normal;text-align:start;letter-spacing:0px;word-spacing:0px;writing-mode:lr-tb;text-anchor:start;fill:#7cfc00;fill-opacity:1;stroke:none"
           id="flowRoot5989">
          <path
             inkscape:connector-curvature="0"
             d="m 63.494095,67.358295 q 0,4.726553 -2.480464,7.656236 -2.656245,3.105463 -7.324206,3.105463 -0.781248,0 -2.363277,-0.07813 -1.562497,-0.09766 -2.343745,-0.09766 -0.839843,0 -0.839843,0.722655 0,0.898436 0.175781,2.675776 0.175781,1.777341 0.175781,2.656245 0,0.449218 -0.410155,0.449218 -1.191404,0 -3.574213,-0.07813 -2.382808,-0.05859 -3.574212,-0.05859 -0.566405,0 -0.566405,-0.566405 0,-2.167965 0.05859,-6.503895 0.07812,-4.355461 0.07812,-6.523426 0,-6.132801 -0.527342,-12.890601 l -0.01953,-0.273437 q -0.03906,-0.371093 0.585937,-0.449218 1.523435,-0.195312 6.718738,-0.195312 3.0664,0 5.878895,0.07813 4.628898,0.136718 7.460924,2.910151 2.89062,2.851557 2.89062,7.460924 z m -7.792955,0.312499 q 0,-4.550773 -4.433585,-4.550773 -3.124995,0 -3.281244,0.351562 -0.136719,0.253906 -0.136719,4.51171 0,0.605468 0.03906,1.796872 0.05859,1.171873 0.05859,1.777341 0,0.390624 3.515619,0.390624 4.238273,0 4.238273,-4.277336 z"
             id="path6024"
             style="fill:#7cfc00" />
          <path
             inkscape:connector-curvature="0"
             d="m 95.310443,83.705921 q 0,0.605468 -0.566405,0.605468 h -6.91405 q -0.566405,0 -0.566405,-0.683593 0,-1.972652 0.136718,-5.917958 0.15625,-3.945305 0.15625,-5.917958 0,-0.566405 -0.175781,-0.605467 -0.214843,0.117187 -2.617183,6.035145 -1.406247,3.476556 -2.812495,6.933581 -0.195312,0.449218 -0.48828,0.527343 -0.09766,0.01953 -0.781249,0.01953 -1.015623,0 -1.210935,-0.390624 -1.054685,-2.148434 -2.773432,-6.249989 -1.835935,-4.335929 -2.753902,-6.26952 -0.03906,-0.09766 -0.175781,-0.214843 -0.136718,0.175781 -0.136718,0.566405 0,1.914059 0.09766,5.742177 0.09766,3.828118 0.09766,5.742177 0,0.683593 -0.546874,0.683593 h -6.523426 q -0.390624,0 -0.48828,-0.117187 -0.07813,-0.136719 -0.07813,-0.449218 0,-2.128903 0.195312,-6.386708 0.214844,-4.277336 0.214844,-6.406238 0,-2.265621 -0.195312,-8.496078 -0.01953,-1.621091 -0.175781,-4.82421 l -0.01953,-0.332031 q -0.01953,-0.390624 0.820311,-0.390624 1.074217,0 3.222651,-0.05859 2.148433,-0.07813 3.22265,-0.07813 0.214844,0 0.605468,0.820311 l 5.703115,12.519509 q 0.605467,1.269529 1.015623,1.269529 0.214843,0 0.917967,-1.464841 1.972652,-4.101555 5.839833,-12.363259 0.332031,-0.761718 0.722655,-0.761718 0.566405,0 1.699216,0.05859 1.152341,0.05859 1.738278,0.05859 0.48828,0 1.484372,-0.09766 1.015623,-0.09766 1.503904,-0.09766 0.585936,0 0.585936,0.468749 0,2.304683 -0.175781,6.894518 -0.15625,4.570305 -0.15625,6.874988 0,2.128902 0.175781,6.386707 0.175781,4.257805 0.175781,6.367176 z"
             id="path6026"
             style="fill:#7cfc00" />
        </g>
        <g
           aria-label="Front-End"
           transform="matrix(0.45665345,0,0,0.54506661,-46.349917,227.05713)"
           style="font-style:normal;font-variant:normal;font-weight:bold;font-stretch:normal;font-size:40.00001526px;line-height:25px;font-family:'Berlin Sans FB Demi';-inkscape-font-specification:'Berlin Sans FB Demi, Bold';font-variant-ligatures:normal;font-variant-caps:normal;font-variant-numeric:normal;font-feature-settings:normal;text-align:start;letter-spacing:0px;word-spacing:0px;writing-mode:lr-tb;text-anchor:start;fill:#ffa500;fill-opacity:1;stroke:none"
           id="flowRoot5997">
          <path
             inkscape:connector-curvature="0"
             d="m 253.26563,100.07313 q 0,0.21484 -0.39062,0.21484 -1.46485,0 -4.45313,-0.2539 -2.96875,-0.253911 -4.45313,-0.253911 -1.875,0 -2.1875,0.136718 -0.72265,0.332033 -0.72265,1.875003 0,1.85547 0.9375,2.10937 0.39062,0.0977 1.1914,0.0977 1.34766,0 4.02344,-0.13672 2.69532,-0.15625 4.04297,-0.15625 0.64454,0 0.64454,3.4375 0,2.98829 -0.21485,3.47657 -0.13672,0.35156 -0.52734,0.35156 0.2539,0 -1.23047,-0.13672 -2.08985,-0.19531 -6.32813,-0.19531 -1.36719,0 -1.54297,0.0195 -0.99609,0.15625 -0.99609,0.83984 0,2.77344 0.23437,6.38672 0.19532,3.26172 0.19532,2.91016 0,0.50781 -1.23047,0.58594 0.33203,-0.0195 -1.73829,-0.0195 -3.65234,0 -4.70703,-0.25391 -0.56641,-0.13672 -0.56641,-0.60547 0,-2.16797 0.13672,-6.50391 0.15625,-4.35547 0.15625,-6.52344 0,-2.57812 -0.23437,-6.48437 -0.35156,-6.035162 -0.3711,-6.484381 l -0.0195,-0.234375 q -0.0195,-0.488281 0.58594,-0.488281 1.44531,0 4.35547,0.05859 2.92969,0.05859 4.39453,0.05859 1.5625,0 4.68751,-0.234375 3.14453,-0.234375 4.70703,-0.234375 0.97656,0 1.09375,0.800782 0,0.839844 0.0781,2.519532 0.0391,0.429687 0.25391,1.660157 0.19531,1.074219 0.19531,1.660156 z"
             id="path6005" />
          <path
             inkscape:connector-curvature="0"
             d="m 268.40236,108.94032 q 0,0.76172 -0.83985,0.76172 -0.37109,0 -1.09375,-0.0391 -0.70312,-0.0586 -1.05469,-0.0586 -1.62109,0 -2.20703,0.50781 -0.58594,0.50782 -0.58594,2.05079 0,0.83984 0.0195,2.55859 0.0391,1.69922 0.0391,2.53906 0,0.56641 0.0781,1.69922 0.0781,1.11329 0.0781,1.66016 0,0.46875 -0.64453,0.52734 -0.9375,0.0781 -2.8711,0.0781 -1.85547,0 -2.96875,-0.11719 -0.64453,-0.0781 -0.64453,-0.64453 0,-1.5625 0.0195,-4.66797 0.0195,-3.125 0.0195,-4.6875 0,-4.58985 -0.83984,-7.5586 -0.0391,-0.17578 -0.0391,-0.29297 0,-0.29297 0.29296,-0.39062 1.07422,-0.11719 3.14454,-0.42969 3.08594,-0.60547 3.18359,-0.60547 0.35156,0 0.44922,1.23047 0.0977,1.23047 0.35156,1.23047 -0.27343,0 1.60157,-1.01563 1.875,-1.03515 3.61328,-1.03515 1.09375,0 1.09375,0.46875 0,0.5664 -0.11719,1.60156 -0.11719,1.11328 -0.13672,1.60156 0,0.56641 0.0195,1.50391 0.0391,1.15234 0.0391,1.52344 z"
             id="path6007" />
          <path
             inkscape:connector-curvature="0"
             d="m 289.47659,111.49891 q 0,4.45313 -2.73438,7.22657 -2.71485,2.77344 -7.14844,2.77344 -4.29688,0 -7.07032,-2.73438 -2.77343,-2.73438 -2.77343,-7.03125 0,-4.53125 2.65625,-7.34375 2.65625,-2.83204 7.1875,-2.83204 4.41406,0 7.14844,2.77344 2.73438,2.75391 2.73438,7.16797 z m -6.40626,0 q 0,-1.54297 -0.95703,-2.71484 -0.95703,-1.19141 -2.48047,-1.19141 -1.54297,0 -2.53906,1.21094 -0.9375,1.13281 -0.9375,2.69531 0,1.58203 0.9375,2.71485 0.99609,1.21094 2.53906,1.21094 1.52344,0 2.51953,-1.21094 0.91797,-1.13282 0.91797,-2.71485 z"
             id="path6009" />
          <path
             inkscape:connector-curvature="0"
             d="m 311.27347,120.54189 q 0,0.52734 -0.54688,0.60546 -0.54687,0.0781 -2.85156,0.0781 -2.46094,0 -3.04688,-0.11719 -0.58593,-0.11719 -0.58593,-0.80078 0,-0.91797 0.0586,-2.77344 0.0586,-1.85547 0.0586,-2.79297 0,-0.72265 -0.0391,-2.14844 -0.0391,-1.44531 -0.0391,-2.16797 0,-2.67578 -2.32422,-2.67578 -0.76172,0 -1.77735,0.66406 -1.09375,0.74219 -1.09375,1.46485 v 10.54688 q 0,0.64453 -0.60547,0.72265 -0.68359,0.0781 -2.79297,0.0781 -2.28515,0 -2.96875,-0.11719 -0.60547,-0.0977 -0.60547,-0.64453 0,-1.52344 0.0195,-4.58985 0.0195,-3.0664 0.0195,-4.60937 0,-4.86329 -0.76172,-7.63672 -0.0391,-0.17578 -0.0391,-0.29297 0,-0.3125 0.29296,-0.42969 1.23047,-0.13672 3.28126,-0.42969 3.10547,-0.60547 3.49609,-0.60547 0.21484,0 0.33203,1.32813 0.11719,1.30859 0.33203,1.30859 -0.21484,0 2.08985,-1.34765 2.32422,-1.36719 4.0625,-1.36719 2.48047,0 4.14063,1.17187 1.85547,1.34766 1.85547,3.75001 v 6.23047 q 0,1.26953 0.0195,3.80859 0.0195,2.51953 0.0195,3.78907 z"
             id="path6011" />
          <path
             inkscape:connector-curvature="0"
             d="m 327.58207,115.38563 q 0,0.58594 -0.15625,1.77735 -0.13672,1.1914 -0.13672,1.75781 0,0.54688 -0.11719,0.70313 -0.11719,0.15625 -0.64453,0.44922 -2.51953,1.38671 -5.58594,1.38671 -5.64453,0 -5.64453,-4.3164 0,-1.28907 0.0976,-3.86719 0.0977,-2.59766 0.0977,-3.88672 0,-0.85938 -0.9961,-0.85938 -0.0781,0 -0.2539,0 -0.17578,0.0195 -0.25391,0.0195 -0.74219,0 -0.74219,-0.52734 0,-0.3125 0.0391,-0.95703 0.0586,-0.64453 0.0586,-0.95703 0,-0.41016 -0.0586,-1.25 -0.0391,-0.83985 -0.0391,-1.25 0,-0.39063 1.25,-0.42969 0.70313,-0.0195 0.76172,-0.39063 0.11719,-0.74219 0.0781,-2.34375 -0.0781,-2.519531 -0.0781,-2.402343 0,-2.265626 0.42969,-2.265626 0.52735,0 1.50391,0.234375 1.11328,0.253906 1.54297,0.292969 0.99609,0.136719 3.00781,0.371094 0.48828,0.03906 0.48828,0.332031 0,0.78125 -0.13672,2.363282 -0.11718,1.582028 -0.11718,2.382818 0,0.95703 0.5664,0.95703 0.6836,0 2.07032,-0.0586 1.38672,-0.0586 2.08984,-0.0586 0.42969,0 0.42969,0.29297 0,0.44922 -0.0977,1.34766 -0.0976,0.89843 -0.0976,1.34765 0,0.46875 0.0195,1.36719 0.0195,0.89844 0.0195,1.36719 0,0.41015 -0.56641,0.41015 -0.39062,0 -1.30859,-0.0195 -0.91797,-0.0391 -1.3086,-0.0391 h -1.46484 q -0.29297,0 -0.29297,0.85938 0,0.46875 0,1.38672 0.0195,0.9375 0.0195,1.38671 0,1.64063 0.3711,2.26563 0.52734,0.83984 2.07031,0.83984 0.48828,0 1.38672,-0.21484 0.91797,-0.23437 1.28906,-0.23437 0.41016,0 0.41016,0.42968 z"
             id="path6013" />
          <path
             inkscape:connector-curvature="0"
             d="m 343.61723,106.06922 q 0,0.60547 -0.27344,1.58204 -0.23437,0.78125 -0.44921,1.58203 -0.0781,0.97656 -0.3711,2.83203 -0.0586,0.27344 -0.46875,0.27344 -0.74219,0 -2.24609,-0.0195 -1.48438,-0.0195 -2.2461,-0.0195 -2.05078,0 -5.50781,0.3711 -0.19532,0.0195 -1.05469,0.15625 -0.68359,0.11719 -1.07422,0.11719 -0.50781,0 -0.50781,-0.95704 0,-0.50781 0.66406,-2.83203 0.64453,-2.20703 0.9375,-2.85156 0.13672,-0.3125 0.50781,-0.3125 0.76172,0 2.28516,0.0781 1.52344,0.0781 2.28516,0.0781 1.60156,0 5.29297,-0.46875 1.93359,-0.25391 1.81641,-0.25391 0.41015,0 0.41015,0.64453 z"
             id="path6015" />
          <path
             inkscape:connector-curvature="0"
             d="m 366.8399,115.03407 q 0,0.83984 -0.33203,3.08594 -0.35157,2.44141 -0.625,2.91016 -0.23438,0.37109 -0.64454,0.37109 -0.17578,0 -0.58593,-0.0586 -1.42578,-0.19532 -8.32032,-0.19532 -1.50391,0 -4.47266,-0.0195 -2.96875,-0.0195 -4.45312,-0.0195 -0.64453,0 -0.64453,-0.5664 0,-2.18751 0.23437,-6.56251 0.25391,-4.39453 0.25391,-6.58203 0,-2.22656 -0.23438,-8.300785 -0.0586,-1.562501 -0.21484,-4.667971 l -0.0195,-0.273437 q -0.0391,-0.449219 0.48828,-0.449219 1.44531,0 4.33594,0.07813 2.91015,0.07813 4.35547,0.07813 1.42578,0 4.29687,-0.07813 2.8711,-0.07813 4.29688,-0.07813 1.01563,0 1.17188,0.761719 0.0976,0.449219 0.29297,2.734376 0.21484,2.265626 0.21484,2.753907 0,0.41016 -0.39063,0.41016 -0.11718,0 -0.41015,-0.0195 -5.19532,-0.429693 -9.33594,-0.429693 -1.03516,0 -1.26954,0.488283 -0.0976,0.23437 -0.0976,1.50391 0,1.32812 0.39062,1.75781 0.33203,0.37109 1.26954,0.37109 0.19531,0 0.76171,-0.0195 0.56641,-0.0391 0.9375,-0.0391 2.46094,0 4.98048,-0.13672 0.21484,-0.0195 1.07421,-0.0977 0.66407,-0.0781 1.05469,-0.0781 0.46875,0 0.46875,0.44922 0,-0.41016 -0.35156,2.98828 -0.15625,1.5625 -0.15625,3.125 0,0.39063 -0.56641,0.39063 0,0 -1.75781,-0.19532 -1.11328,-0.11718 -5.07813,-0.11718 h -2.07031 q -0.80078,0 -0.9375,0.39062 -0.0195,0.0977 -0.0195,1.21094 0,1.48438 0.19531,1.91406 0.33203,0.74219 2.5,0.87891 -0.0391,0 2.85157,0 1.03515,0 3.0664,-0.17578 2.05078,-0.19531 3.06641,-0.19531 0.42969,0 0.42969,0.70312 z"
             id="path6017" />
          <path
             inkscape:connector-curvature="0"
             d="m 388.69537,120.54189 q 0,0.52734 -0.54688,0.60546 -0.54687,0.0781 -2.85156,0.0781 -2.46094,0 -3.04688,-0.11719 -0.58594,-0.11719 -0.58594,-0.80078 0,-0.91797 0.0586,-2.77344 0.0586,-1.85547 0.0586,-2.79297 0,-0.72265 -0.0391,-2.14844 -0.0391,-1.44531 -0.0391,-2.16797 0,-2.67578 -2.32422,-2.67578 -0.76172,0 -1.77735,0.66406 -1.09375,0.74219 -1.09375,1.46485 v 10.54688 q 0,0.64453 -0.60547,0.72265 -0.68359,0.0781 -2.79297,0.0781 -2.28515,0 -2.96875,-0.11719 -0.60547,-0.0977 -0.60547,-0.64453 0,-1.52344 0.0195,-4.58985 0.0195,-3.0664 0.0195,-4.60937 0,-4.86329 -0.76172,-7.63672 -0.0391,-0.17578 -0.0391,-0.29297 0,-0.3125 0.29297,-0.42969 1.23047,-0.13672 3.28125,-0.42969 3.10547,-0.60547 3.4961,-0.60547 0.21484,0 0.33203,1.32813 0.11719,1.30859 0.33203,1.30859 -0.21484,0 2.08985,-1.34765 2.32422,-1.36719 4.0625,-1.36719 2.48047,0 4.14062,1.17187 1.85547,1.34766 1.85547,3.75001 v 6.23047 q 0,1.26953 0.0195,3.80859 0.0195,2.51953 0.0195,3.78907 z"
             id="path6019" />
          <path
             inkscape:connector-curvature="0"
             d="m 412.64069,93.393437 q 0,-0.429687 -0.15625,1.289063 -0.21484,2.16797 -0.33203,5.54688 -0.15625,3.82812 -0.15625,8.71094 0,8.06641 0.44922,11.48438 0.0391,0.37109 0.0391,0.46875 0,0.21484 -0.29296,0.2539 -0.70313,0.0977 -5.17579,0.0977 -1.05469,0 -1.21094,-0.41016 -0.0391,-0.74218 -0.0781,-1.48437 -0.0195,-0.15625 -0.15625,-0.3125 -0.11719,0.0586 -0.29297,0.23437 -2.10938,2.07032 -5.27344,2.07032 -4.12109,0 -6.60156,-2.89063 -2.36329,-2.75391 -2.36329,-6.95313 0,-4.25781 2.32422,-7.01172 2.46094,-2.92969 6.64063,-2.92969 2.94922,0 4.58985,1.875 0.27343,0.3125 0.39062,0.3125 0.17578,0 0.17578,-0.50781 0,-1.50391 -0.0781,-4.492188 -0.0781,-2.988282 -0.0781,-4.472658 0,-0.566406 0.3125,-0.644531 1.25,-0.05859 3.4375,-0.234376 3.90626,-0.488281 3.45704,-0.488281 0.42968,0 0.42968,0.488281 z m -7.36328,17.949223 q 0,-1.54297 -1.07422,-2.69531 -1.07422,-1.17188 -2.59766,-1.17188 -1.60156,0 -2.55859,1.17188 -0.9375,1.15234 -0.9375,2.77344 0,1.58203 0.95703,2.67578 0.97656,1.17188 2.53906,1.17188 1.5625,0 2.61719,-1.17188 1.05469,-1.17188 1.05469,-2.75391 z"
             id="path6021" />
        </g>
      </g>
    </g>
  </g>
</svg>
